<?xml version="1.0" encoding="UTF-8"?><svg xmlns="http://www.w3.org/2000/svg" xmlns:xlink="http://www.w3.org/1999/xlink" contentScriptType="text/ecmascript" width="810" zoomAndPan="magnify" contentStyleType="text/css" viewBox="0 0 810 809.999993" height="809.999993" preserveAspectRatio="xMidYMid meet" version="1.0"><defs><clipPath id="clip-0"><path d="M 287 289 L 553 289 L 553 523.523438 L 287 523.523438 Z M 287 289 " clip-rule="nonzero"/></clipPath><clipPath id="clip-1"><path d="M 289 297 L 552 297 L 552 523.523438 L 289 523.523438 Z M 289 297 " clip-rule="nonzero"/></clipPath><clipPath id="clip-2"><path d="M 288 320 L 506 320 L 506 523.523438 L 288 523.523438 Z M 288 320 " clip-rule="nonzero"/></clipPath><clipPath id="clip-3"><path d="M 284 286.523438 L 554.796875 286.523438 L 554.796875 523.523438 L 284 523.523438 Z M 284 286.523438 " clip-rule="nonzero"/></clipPath></defs><g clip-path="url(#clip-0)"><path fill="rgb(100%, 100%, 100%)" d="M 552.144531 505.023438 L 551.1875 523.496094 L 483.859375 523.496094 L 485.054688 505.023438 Z M 536.683594 424.050781 C 536.683594 424.050781 538.398438 393.878906 513 362.628906 C 518.820312 333.75 511.015625 295.058594 503.605469 289.363281 C 489.613281 290.179688 460.382812 300.410156 444.148438 326.148438 C 427.714844 320.304688 404.515625 318.757812 381.121094 324.589844 C 381.121094 324.589844 353.425781 295.535156 320.957031 289.363281 C 305.199219 300.84375 310.136719 356.789062 309.972656 363.820312 C 298.992188 383.375 257.449219 443.144531 325.730469 485.054688 C 316.65625 508.363281 313.046875 523.171875 313.046875 523.171875 L 481.394531 523.5 C 481.394531 523.5 484.507812 490.726562 487.847656 474.503906 C 491.191406 458.285156 494.300781 431.085938 501.449219 427.898438 C 508.597656 424.714844 514.183594 432.273438 514.183594 432.273438 C 514.183594 432.273438 522.261719 412.476562 528.566406 430.125 C 526.757812 423.445312 536.683594 424.050781 536.683594 424.050781 Z M 536.683594 424.050781 " fill-opacity="1" fill-rule="nonzero"/></g><path fill="rgb(93.728638%, 69.018555%, 49.01886%)" d="M 492.21875 449.207031 C 497.46875 422.730469 508.214844 425.355469 514.183594 432.273438 C 515.136719 424.164062 523.730469 421.539062 528.746094 427.980469 C 548.085938 408.898438 551.1875 465.511719 551.1875 465.511719 L 551.1875 502.160156 C 551.1875 502.160156 546.855469 516.234375 517.167969 516.234375 C 491.265625 516.234375 483.859375 504.785156 483.859375 504.785156 C 483.859375 504.785156 486.964844 475.683594 492.21875 449.207031 Z M 381.957031 324.9375 C 376.226562 316.371094 339.339844 286.523438 321.433594 289.394531 C 301.140625 312.769531 310.929688 363.820312 310.929688 363.820312 C 310.929688 363.820312 294.167969 386.210938 292.171875 407.851562 C 292.820312 423.808594 336.246094 451.757812 385.894531 410.238281 C 433.078125 370.78125 395.085938 322.550781 395.085938 322.550781 C 395.085938 322.550781 388.640625 323.003906 381.957031 324.9375 Z M 499.550781 303.230469 L 483.859375 335.035156 C 483.859375 335.035156 497.882812 346.640625 501.578125 356.660156 C 505.269531 347.117188 506.25 322.789062 499.550781 303.230469 Z M 499.550781 303.230469 " fill-opacity="1" fill-rule="nonzero"/><g clip-path="url(#clip-1)"><path fill="rgb(93.728638%, 32.939148%, 32.939148%)" d="M 551.1875 523.496094 C 551.1875 523.496094 551.1875 523.496094 522.179688 523.496094 C 544.742188 521.457031 547.492188 460.664062 547.492188 460.664062 Z M 338.304688 335.035156 C 338.304688 335.035156 325.886719 309.273438 323.820312 303.230469 C 318.566406 315.953125 317.703125 347.753906 321.796875 356.660156 C 329.847656 346.855469 338.304688 335.035156 338.304688 335.035156 Z M 481.523438 523.496094 C 484.179688 506.875 487.824219 483.996094 490.761719 465.558594 C 490.746094 465.5625 490.734375 465.570312 490.71875 465.574219 L 493.722656 432.46875 C 493.53125 432.703125 493.289062 433.023438 492.992188 433.449219 C 490.71875 436.734375 485.566406 446.199219 481.40625 468.6875 C 464.359375 473.757812 441.90625 477.246094 412.351562 477.449219 C 297.742188 476.664062 289.9375 426.453125 289.9375 426.453125 C 289.9375 426.453125 287.867188 433.222656 292.269531 444.285156 C 290.984375 443.199219 290.007812 442.34375 289.472656 441.8125 C 292.851562 467.175781 325.890625 486.738281 325.890625 486.738281 L 313.046875 523.5 C 313.046875 523.5 326.527344 523.5 341.167969 523.5 C 350.082031 494.429688 360.855469 495.191406 360.855469 495.191406 C 383.289062 500.097656 404.832031 501.421875 412.347656 501.421875 C 419.867188 501.421875 441.410156 500.097656 463.84375 495.191406 C 463.84375 495.191406 469.351562 494.804688 475.75 505.210938 C 473.425781 520.023438 472.679688 523.484375 472.679688 523.484375 Z M 443.539062 326.148438 L 456.75 329.945312 C 456.75 329.945312 461.683594 312.203125 483.25 297.222656 C 468.210938 301.320312 451.976562 312.179688 443.539062 326.148438 Z M 340.398438 297.222656 C 361.964844 312.203125 366.898438 329.945312 366.898438 329.945312 L 380.113281 326.148438 C 371.675781 312.179688 355.441406 301.320312 340.398438 297.222656 Z M 421.070312 436.972656 C 421.070312 436.972656 410.246094 439.453125 401.015625 436.699219 C 402.289062 447.300781 417.886719 448.253906 421.070312 436.972656 Z M 421.070312 436.972656 " fill-opacity="0.298" fill-rule="nonzero"/></g><g clip-path="url(#clip-2)"><path fill="rgb(100%, 100%, 100%)" d="M 312.585938 320.265625 C 312.585938 320.265625 310.164062 353.492188 321.527344 369.386719 C 309.496094 378.128906 288.867188 406.523438 289.453125 429.648438 C 284.910156 414.625 291.421875 388.933594 309.410156 365.964844 C 307.585938 352.367188 309.414062 333.660156 312.585938 320.265625 Z M 488.316406 492.078125 C 494.761719 444.3125 505.773438 429.691406 505.773438 429.691406 C 487.652344 424.800781 486.644531 470.835938 488.316406 492.078125 Z M 302.371094 460.664062 C 302.371094 460.664062 324.535156 480.933594 338.144531 483.078125 C 332.652344 489.996094 321.527344 523.5 321.527344 523.5 L 311.644531 523.5 L 324.535156 485.941406 C 324.535156 485.941406 302.878906 475.226562 302.371094 460.664062 Z M 302.371094 460.664062 " fill-opacity="1" fill-rule="nonzero"/></g><g clip-path="url(#clip-3)"><path fill="rgb(16.859436%, 3.138733%, 2.349854%)" d="M 554.769531 523.496094 C 551.726562 523.496094 547.726562 523.496094 547.726562 523.496094 C 547.667969 511.882812 549.710938 451.839844 543.617188 431.609375 C 540.386719 420.898438 530.328125 426.019531 528.957031 434.933594 C 528.046875 430.457031 527.011719 425.644531 522.433594 426.121094 C 516.78125 426.710938 514.46875 436.691406 514.46875 436.691406 C 514.46875 436.691406 509.925781 429.417969 505.773438 429.691406 C 499.214844 430.121094 494.890625 439.75 491.746094 460.25 C 489.976562 471.773438 485.429688 523.496094 485.429688 523.496094 L 479.570312 523.496094 C 479.570312 523.496094 482.789062 487.84375 483.824219 480.121094 L 483.855469 479.898438 L 484.6875 473.878906 C 486.574219 460.644531 488.671875 448.640625 490.699219 441.042969 C 495.96875 421.28125 507.925781 419.199219 513.316406 428.691406 C 516.082031 418.515625 528.085938 416.820312 529.355469 425.773438 C 529.75 423.902344 531.617188 421.652344 534.246094 420.714844 C 533.199219 405.449219 526.511719 387.039062 510.394531 365.011719 C 513.917969 357.613281 517.675781 322.820312 502.882812 292.257812 C 495.402344 292.257812 470.335938 298.375 446.140625 324.65625 C 450.253906 326.078125 454.117188 327.816406 457.363281 329.945312 C 456.351562 329.984375 434.253906 323.714844 412.15625 323.714844 C 390.0625 323.714844 367.964844 329.984375 366.953125 329.945312 C 370.199219 327.816406 374.0625 326.078125 378.171875 324.65625 C 353.980469 298.375 328.914062 292.257812 321.433594 292.257812 C 306.636719 322.820312 310.398438 357.613281 313.921875 365.011719 C 255.539062 444.808594 320.84375 477.140625 330.148438 484.390625 C 324.894531 495.125 315.226562 523.496094 315.226562 523.496094 L 308.738281 523.496094 C 308.738281 523.496094 315.011719 503.726562 322.652344 486.074219 C 264.371094 451.839844 283.234375 395.777344 307.109375 365.964844 C 299.945312 323.746094 314.746094 287.488281 320.476562 286.523438 C 358.445312 293.78125 377.847656 316.382812 382.925781 323.175781 C 389.742188 321.261719 400.949219 318.472656 412.15625 318.472656 C 423.355469 318.472656 434.554688 321.257812 441.390625 323.175781 C 446.46875 316.382812 465.871094 293.78125 503.839844 286.523438 C 509.566406 287.488281 524.371094 323.746094 517.207031 365.964844 C 528.539062 380.113281 538.726562 400.171875 540.089844 421 C 542.054688 421.867188 544.125 423.570312 546.160156 426.472656 C 549.957031 431.894531 550.535156 438.886719 552.324219 452.96875 C 553.976562 465.972656 554.769531 515.816406 554.769531 523.496094 Z M 499.550781 303.230469 C 499.550781 303.230469 488.667969 318.628906 480.664062 335.019531 C 486.03125 338.53125 497.066406 349.980469 501.578125 356.660156 C 503.699219 352.84375 492.671875 336.664062 487.058594 333.523438 C 492.902344 327.320312 499.550781 303.230469 499.550781 303.230469 Z M 323.820312 303.230469 C 323.820312 303.230469 334.707031 318.628906 342.707031 335.019531 C 337.339844 338.53125 326.304688 349.980469 321.796875 356.660156 C 319.671875 352.84375 330.699219 336.664062 336.3125 333.523438 C 330.46875 327.320312 323.820312 303.230469 323.820312 303.230469 Z M 354.191406 380.316406 C 342.039062 383.183594 333.804688 395.300781 331.292969 405.347656 C 330.914062 406.878906 331.734375 408.09375 333.441406 408.519531 C 336.199219 409.210938 341.214844 407.804688 341.953125 404.847656 C 342.917969 400.988281 344.558594 397.484375 346.832031 394.4375 C 348.542969 392.140625 351.882812 388.167969 355.035156 387.378906 C 357.566406 386.746094 359.992188 390.886719 361.289062 393.109375 L 361.597656 393.632812 C 363.828125 397.390625 365.628906 401.746094 366.953125 406.578125 C 367.417969 408.277344 369.082031 408.945312 370.925781 408.945312 C 371.695312 408.945312 372.496094 408.828125 373.257812 408.621094 C 376.347656 407.777344 378.117188 405.765625 377.558594 403.730469 C 372.691406 385.957031 364.613281 377.863281 354.191406 380.316406 Z M 492.066406 403.730469 C 487.199219 385.957031 479.121094 377.859375 468.699219 380.316406 C 456.546875 383.183594 448.3125 395.300781 445.800781 405.347656 C 445.570312 406.277344 445.785156 407.125 446.414062 407.726562 C 447.726562 408.992188 450.347656 408.824219 452.195312 408.296875 C 454.492188 407.640625 456.085938 406.347656 456.460938 404.847656 C 457.425781 400.988281 459.066406 397.484375 461.335938 394.4375 C 463.050781 392.140625 466.390625 388.167969 469.542969 387.378906 C 472.074219 386.75 474.5 390.886719 475.796875 393.109375 L 476.105469 393.632812 C 478.335938 397.390625 480.136719 401.746094 481.460938 406.578125 C 481.753906 407.65625 482.613281 408.433594 483.875 408.761719 C 484.355469 408.890625 484.886719 408.949219 485.433594 408.949219 C 487.484375 408.949219 489.820312 408.113281 491.117188 406.804688 C 492.023438 405.894531 492.359375 404.800781 492.066406 403.730469 Z M 429.304688 409.082031 C 428.015625 409.769531 427.402344 411.976562 428.664062 414.34375 C 429.398438 415.71875 428.613281 417.140625 428.082031 417.863281 C 426.691406 419.753906 424.191406 420.910156 422.273438 420.550781 C 418.964844 419.933594 416.976562 416.046875 415.609375 412.730469 C 414.972656 411.183594 413.632812 410.222656 412.113281 410.222656 C 410.597656 410.222656 409.257812 411.183594 408.621094 412.730469 C 407.5 415.453125 405.414062 420.515625 401.957031 421.160156 C 400.488281 421.4375 398.65625 420.726562 397.195312 419.320312 C 395.035156 417.148438 395.683594 414.3125 395.917969 413.542969 C 395.9375 413.484375 395.957031 413.421875 395.980469 413.34375 L 396.484375 412.003906 L 396.234375 412.003906 C 396.300781 410.601562 395.742188 409.402344 394.734375 408.996094 C 393.875 408.648438 392.609375 408.914062 391.648438 410.714844 C 389.863281 414.058594 389.765625 418.039062 391.382812 421.363281 C 392.886719 424.445312 395.714844 426.566406 399.144531 427.171875 C 404.066406 428.046875 408.53125 425.96875 412.113281 421.164062 C 415.164062 425.253906 418.851562 427.367188 422.917969 427.367188 C 423.628906 427.367188 424.351562 427.300781 425.082031 427.171875 C 428.511719 426.566406 431.34375 424.445312 432.84375 421.363281 C 434.464844 418.039062 434.363281 414.058594 432.582031 410.714844 C 431.546875 408.773438 430.167969 408.625 429.304688 409.082031 Z M 429.304688 409.082031 " fill-opacity="1" fill-rule="nonzero"/></g><path fill="rgb(93.728638%, 32.939148%, 32.939148%)" d="M 521.265625 457.15625 C 519.480469 455.15625 512.339844 449.714844 507.75 458.589844 C 503.160156 467.460938 515.683594 476.332031 521.265625 476.332031 C 526.84375 476.332031 539.371094 467.460938 534.78125 458.589844 C 530.191406 449.714844 523.050781 455.15625 521.265625 457.15625 Z M 525.644531 442.210938 C 525.644531 439.503906 524.09375 437.308594 522.179688 437.308594 C 520.265625 437.308594 518.714844 439.503906 518.714844 442.210938 C 518.714844 444.917969 520.265625 447.113281 522.179688 447.113281 C 524.09375 447.113281 525.644531 444.917969 525.644531 442.210938 Z M 536.386719 440.253906 C 534.445312 439.960938 532.5 441.765625 532.046875 444.289062 C 531.589844 446.8125 532.796875 449.09375 534.738281 449.386719 C 536.675781 449.683594 538.621094 447.878906 539.074219 445.355469 C 539.53125 442.832031 538.324219 440.550781 536.386719 440.253906 Z M 508.386719 449.632812 C 510.347656 449.066406 511.21875 446.5625 510.332031 444.046875 C 509.445312 441.527344 507.136719 439.945312 505.175781 440.511719 C 503.210938 441.082031 502.339844 443.582031 503.230469 446.101562 C 504.117188 448.621094 506.425781 450.199219 508.386719 449.632812 Z M 508.386719 449.632812 " fill-opacity="1" fill-rule="nonzero"/></svg>