<?xml version="1.0" encoding="UTF-8"?><svg xmlns="http://www.w3.org/2000/svg" xmlns:xlink="http://www.w3.org/1999/xlink" contentScriptType="text/ecmascript" width="810" zoomAndPan="magnify" contentStyleType="text/css" viewBox="0 0 810 809.999993" height="809.999993" preserveAspectRatio="xMidYMid meet" version="1.0"><defs><clipPath id="clip-0"><path d="M 246 284 L 534 284 L 534 541.332031 L 246 541.332031 Z M 246 284 " clip-rule="nonzero"/></clipPath><clipPath id="clip-1"><path d="M 254 305 L 524 305 L 524 541.332031 L 254 541.332031 Z M 254 305 " clip-rule="nonzero"/></clipPath><clipPath id="clip-2"><path d="M 295 403 L 505 403 L 505 541.332031 L 295 541.332031 Z M 295 403 " clip-rule="nonzero"/></clipPath><clipPath id="clip-3"><path d="M 249 286 L 534 286 L 534 541.332031 L 249 541.332031 Z M 249 286 " clip-rule="nonzero"/></clipPath><clipPath id="clip-4"><path d="M 243 281 L 537 281 L 537 541.332031 L 243 541.332031 Z M 243 281 " clip-rule="nonzero"/></clipPath><clipPath id="clip-5"><path d="M 367 326 L 544 326 L 544 541.332031 L 367 541.332031 Z M 367 326 " clip-rule="nonzero"/></clipPath></defs><g clip-path="url(#clip-0)"><path fill="rgb(100%, 100%, 100%)" d="M 532.21875 444.761719 C 528.8125 470.066406 504.472656 500.128906 504.472656 500.128906 L 469.167969 541.269531 L 269.851562 541.269531 C 269.851562 541.269531 279.640625 528.585938 287.691406 515.285156 C 265.578125 501.304688 255.175781 486.085938 249.105469 472.230469 C 243.53125 459.425781 249.105469 435.296875 249.105469 435.296875 C 254.554688 417.667969 266.074219 403.253906 272.269531 395.769531 C 258.765625 372.199219 269.914062 311.078125 274.933594 304.953125 C 308.6875 300.191406 353.839844 337.246094 353.839844 337.246094 C 353.839844 337.246094 377.191406 330.566406 387.90625 329.945312 C 387.285156 311.261719 397.070312 295.488281 397.257812 284.105469 C 424.511719 285.960938 455.105469 315.902344 463.53125 338.667969 C 531.785156 374.179688 535.5625 419.460938 532.21875 444.761719 Z M 490.410156 491.097656 C 490.90625 481.078125 478.457031 474.644531 478.828125 488.191406 C 479.136719 501.738281 490.164062 496.234375 490.410156 491.097656 Z M 490.410156 491.097656 " fill-opacity="1" fill-rule="nonzero"/></g><g clip-path="url(#clip-1)"><path fill="rgb(93.728638%, 69.018555%, 49.01886%)" d="M 460.558594 541.269531 C 453.867188 515.039062 457.707031 467.035156 465.015625 461.652344 C 472.324219 456.269531 477.28125 462.640625 477.28125 462.640625 C 477.28125 462.640625 477.527344 457.011719 484.339844 455.15625 C 491.15625 453.363281 495.613281 463.878906 495.613281 463.878906 C 495.613281 463.878906 501.125 443.835938 513.761719 471.425781 C 526.398438 499.015625 523.300781 541.269531 523.300781 541.269531 C 523.300781 541.269531 476.722656 541.269531 460.558594 541.269531 Z M 349.378906 337.246094 C 334.886719 313.921875 288.867188 302.914062 276.355469 306.625 C 257.34375 341.019531 267.871094 397.5 267.871094 397.5 C 267.871094 397.5 259.324219 409.871094 254.554688 424.226562 C 266.445312 442.535156 314.015625 468.890625 362.015625 431.523438 C 413.363281 391.625 369.632812 335.082031 369.632812 335.082031 C 369.632812 335.082031 361.457031 333.410156 349.378906 337.246094 Z M 349.378906 337.246094 " fill-opacity="1" fill-rule="nonzero"/></g><g clip-path="url(#clip-2)"><path fill="rgb(93.728638%, 32.939148%, 32.939148%)" d="M 477.28125 462.578125 C 463.035156 449.773438 460.125 468.765625 458.265625 480.148438 C 456.40625 491.53125 457.769531 524.320312 457.769531 524.320312 L 441.355469 541.332031 L 403.328125 541.332031 L 370.253906 519.925781 C 370.253906 519.925781 367.402344 499.015625 366.660156 477.363281 C 365.917969 455.714844 353.53125 457.320312 349.503906 462.148438 C 347.644531 454.226562 339.160156 455.589844 339.160156 455.589844 C 339.160156 455.589844 339.53125 442.722656 353.097656 432.515625 C 386.605469 414.015625 416.828125 442.722656 416.828125 442.722656 C 416.828125 442.722656 439.1875 407.335938 469.230469 416.800781 C 499.269531 426.265625 491.214844 457.878906 491.214844 457.878906 C 485.332031 452.125 479.882812 457.628906 477.28125 462.578125 Z M 477.28125 462.578125 C 463.035156 449.773438 460.125 468.765625 458.265625 480.148438 C 456.40625 491.53125 457.769531 524.320312 457.769531 524.320312 L 441.355469 541.332031 L 403.328125 541.332031 L 370.253906 519.925781 C 370.253906 519.925781 367.402344 499.015625 366.660156 477.363281 C 365.917969 455.714844 353.53125 457.320312 349.503906 462.148438 C 347.644531 454.226562 339.160156 455.589844 339.160156 455.589844 C 339.160156 455.589844 339.53125 442.722656 353.097656 432.515625 C 386.605469 414.015625 416.828125 442.722656 416.828125 442.722656 C 416.828125 442.722656 439.1875 407.335938 469.230469 416.800781 C 499.269531 426.265625 491.214844 457.878906 491.214844 457.878906 C 485.332031 452.125 479.882812 457.628906 477.28125 462.578125 Z M 494.375 406.222656 C 495.921875 408.078125 496.417969 410.242188 495.550781 410.984375 C 494.621094 411.730469 492.703125 410.738281 491.15625 408.882812 C 489.605469 407.027344 489.109375 404.863281 489.976562 404.121094 C 490.90625 403.378906 492.828125 404.367188 494.375 406.222656 Z M 485.457031 406.839844 C 487.003906 408.699219 487.5 410.863281 486.632812 411.605469 C 485.765625 412.347656 483.785156 411.355469 482.234375 409.5 C 480.6875 407.644531 480.191406 405.480469 481.058594 404.738281 C 481.988281 403.996094 483.96875 404.921875 485.457031 406.839844 Z M 318.472656 434.0625 C 320.023438 435.917969 320.519531 438.082031 319.652344 438.824219 C 318.785156 439.566406 316.800781 438.578125 315.253906 436.722656 C 313.703125 434.867188 313.210938 432.699219 314.078125 431.957031 C 315.003906 431.214844 316.925781 432.207031 318.472656 434.0625 Z M 309.554688 434.617188 C 311.101562 436.472656 311.597656 438.640625 310.730469 439.382812 C 309.804688 440.125 307.882812 439.132812 306.335938 437.277344 C 304.785156 435.421875 304.289062 433.257812 305.15625 432.515625 C 306.085938 431.832031 308.007812 432.761719 309.554688 434.617188 Z M 503.171875 405.417969 C 504.71875 407.273438 505.214844 409.441406 504.347656 410.183594 C 503.480469 410.925781 501.496094 409.933594 499.949219 408.078125 C 498.402344 406.222656 497.90625 404.058594 498.773438 403.316406 C 499.703125 402.636719 501.621094 403.5625 503.171875 405.417969 Z M 300.386719 435.238281 C 301.9375 437.09375 302.433594 439.257812 301.566406 440 C 300.636719 440.742188 298.714844 439.753906 297.167969 437.898438 C 295.621094 436.039062 295.125 433.875 295.992188 433.132812 C 296.917969 432.453125 298.839844 433.378906 300.386719 435.238281 Z M 300.386719 435.238281 " fill-opacity="1" fill-rule="nonzero"/></g><g clip-path="url(#clip-3)"><path fill="rgb(93.728638%, 32.939148%, 32.939148%)" d="M 306.519531 360.382812 C 306.519531 360.382812 289.300781 373.0625 285.769531 382.714844 C 272.269531 354.445312 284.964844 320.480469 284.964844 320.480469 Z M 331.542969 461.652344 C 319.21875 449.652344 312.21875 473.28125 312.21875 473.28125 L 308.8125 478.847656 C 309.371094 476.4375 309.988281 474.148438 310.546875 472.230469 C 280.136719 461.03125 279.207031 418.410156 284.902344 401.707031 C 270.164062 386.984375 268.429688 347.269531 268.429688 347.269531 C 267.128906 358.277344 265.890625 383.210938 268.304688 397.871094 C 254.183594 409.316406 249.226562 435.296875 249.226562 435.296875 L 249.226562 439.070312 L 250.960938 440.988281 C 250.960938 440.988281 245.945312 484.914062 298.839844 512.132812 C 293.203125 525 283.046875 541.207031 283.046875 541.207031 C 287.320312 541.207031 315.5625 541.207031 317.605469 541.207031 C 316.738281 530.875 318.90625 505.882812 320.765625 488.5 C 322.625 471.117188 329.933594 468.023438 332.65625 472.664062 C 335.691406 459.054688 343.496094 457.570312 343.496094 457.570312 C 340.894531 456.207031 334.328125 455.28125 331.542969 461.652344 Z M 529.804688 416.738281 C 529.804688 416.738281 529.804688 444.703125 508.558594 461.960938 C 515.992188 469.941406 519.210938 480.148438 519.210938 480.148438 C 519.210938 480.148438 542.625 441.609375 529.804688 416.738281 Z M 403.328125 541.269531 L 367.898438 519.863281 L 369.324219 541.269531 Z M 441.355469 541.269531 L 460.558594 541.269531 L 457.769531 524.257812 M 405.308594 325.800781 C 405.308594 325.800781 401.40625 309.902344 399.796875 286.023438 C 391.992188 293.324219 388.027344 330.007812 388.027344 330.007812 Z M 487.253906 457.570312 C 487.253906 457.570312 481.492188 461.03125 480.191406 474.644531 C 478.269531 465.796875 469.414062 466.042969 469.105469 479.777344 C 468.796875 493.636719 470.40625 535.390625 473.253906 541.269531 C 460.558594 541.269531 460.246094 541.269531 460.246094 541.269531 C 460.246094 541.269531 455.230469 485.964844 461.546875 469.261719 C 467.867188 452.496094 477.34375 462.578125 477.34375 462.578125 C 477.34375 462.578125 479.449219 449.527344 487.253906 457.570312 Z M 487.253906 457.570312 " fill-opacity="0.298" fill-rule="nonzero"/></g><path fill="rgb(100%, 100%, 100%)" d="M 472.757812 418.347656 C 497.472656 424.96875 491.277344 457.816406 491.277344 457.816406 C 491.277344 457.816406 491.277344 457.816406 486.570312 454.910156 C 483.785156 412.160156 447.984375 420.265625 447.984375 420.265625 C 447.984375 420.265625 448.046875 411.789062 472.757812 418.347656 Z M 293.019531 308.851562 C 293.019531 308.851562 335.878906 323.078125 348.886719 345.226562 C 356.503906 342.070312 381.402344 334.585938 388.027344 332.914062 C 382.828125 333.226562 353.964844 337.246094 353.964844 337.246094 C 353.964844 337.246094 324.234375 310.519531 293.019531 308.851562 Z M 293.019531 308.851562 " fill-opacity="1" fill-rule="nonzero"/><g clip-path="url(#clip-4)"><path fill="rgb(16.859436%, 3.138733%, 2.349854%)" d="M 471.769531 385.933594 C 472.386719 386.054688 472.945312 386.242188 473.441406 386.425781 C 475.113281 386.984375 475.484375 388.839844 474.804688 390.078125 C 475.855469 390.449219 476.785156 390.941406 477.714844 391.5625 C 479.695312 393.046875 479.015625 395.953125 476.476562 396.140625 C 476.105469 396.140625 475.730469 396.199219 475.359375 396.199219 C 475.671875 396.261719 476.042969 396.261719 476.414062 396.324219 C 479.511719 396.695312 479.570312 400.964844 476.414062 401.089844 C 465.078125 401.953125 453.683594 403.5 443.03125 407.582031 C 440.550781 408.574219 439.25 405.234375 440.800781 403.5625 C 439.1875 403.75 437.578125 403.933594 435.96875 404.058594 C 433.675781 404.179688 432.5625 400.46875 434.730469 399.480469 C 438.136719 397.933594 441.542969 396.757812 445.074219 395.769531 C 442.101562 396.140625 439.128906 396.570312 436.214844 397.066406 C 433.492188 397.5625 432.253906 394.46875 434.046875 392.921875 C 432.4375 392.054688 432.625 389.085938 434.667969 388.34375 C 446.1875 384.261719 457.957031 381.539062 470.21875 383.273438 C 471.644531 383.394531 472.140625 384.757812 471.769531 385.933594 Z M 286.515625 384.386719 C 289.054688 381.167969 303.359375 363.476562 310.234375 361.558594 C 301.007812 333.101562 284.902344 320.417969 284.902344 320.417969 C 284.902344 323.574219 298.902344 350.792969 301.6875 359.949219 C 286.824219 369.847656 283.976562 385.375 286.515625 384.386719 Z M 350.433594 401.027344 C 349.691406 400.902344 349.007812 400.839844 348.328125 400.777344 C 348.328125 399.542969 347.585938 398.304688 345.972656 398.367188 C 333.648438 398.613281 322.4375 403.378906 311.785156 409.316406 C 309.863281 410.429688 310.484375 413.027344 312.21875 413.707031 C 310.730469 415.316406 312.15625 418.535156 314.570312 417.730469 C 317.421875 416.738281 320.269531 415.875 323.121094 415.070312 C 320.023438 416.554688 317.050781 418.164062 314.199219 420.019531 C 311.96875 421.566406 313.332031 425.089844 316.058594 424.472656 C 317.542969 424.101562 318.90625 423.730469 320.394531 423.296875 C 319.15625 425.089844 321.324219 428.058594 323.675781 426.761719 C 333.585938 421.007812 344.550781 417.667969 355.636719 415.070312 C 358.300781 414.328125 357.804688 410.121094 355.015625 410.242188 C 354.519531 410.242188 354.085938 410.304688 353.59375 410.367188 C 354.027344 410.242188 354.398438 410.183594 354.832031 410.058594 C 356.75 409.5625 357.308594 406.53125 355.449219 405.605469 C 354.335938 405.046875 353.21875 404.738281 351.980469 404.492188 C 352.476562 403.128906 351.980469 401.335938 350.433594 401.027344 Z M 392.363281 418.90625 C 396.082031 418.222656 399.238281 415.8125 401.777344 413.027344 C 405.496094 415.132812 409.644531 416.304688 413.796875 414.761719 C 418.128906 413.214844 420.050781 408.945312 420.359375 404.492188 C 420.609375 401.027344 417.757812 400.285156 417.078125 403.75 C 416.519531 406.71875 415.035156 409.6875 412.0625 410.492188 C 408.714844 411.355469 405.246094 408.882812 402.644531 407.089844 C 401.71875 406.46875 400.046875 406.59375 399.300781 407.523438 C 397.503906 409.75 395.460938 412.65625 392.738281 413.707031 C 389.019531 415.132812 384.1875 413.644531 381.277344 411.109375 C 378.675781 408.820312 376.570312 410.675781 378.988281 413.273438 C 382.828125 417.605469 386.851562 419.832031 392.363281 418.90625 Z M 466.566406 337.246094 C 449.78125 299.570312 409.027344 281.261719 397.132812 281.261719 C 387.535156 300.003906 385.242188 320.417969 384.5625 327.347656 C 375.269531 328.089844 364.492188 329.636719 353.902344 332.914062 C 347.707031 323.945312 305.902344 302.601562 274.992188 301.117188 C 268.800781 304.457031 255.484375 361.683594 267.4375 395.148438 C 264.710938 398.179688 261.675781 402.261719 258.765625 407.027344 C 254.121094 413.957031 243.28125 434.863281 243.28125 453.238281 C 243.28125 471.613281 250.839844 483.984375 250.839844 483.984375 C 256.96875 495.921875 267.746094 507.304688 285.214844 516.710938 C 277.160156 527.78125 266.199219 541.269531 266.199219 541.269531 L 274.871094 541.269531 C 274.871094 541.269531 290.230469 517.761719 293.078125 515.410156 C 288.558594 513.121094 266.199219 500.8125 254.863281 480.953125 C 254.246094 479.839844 253.625 478.726562 253.128906 477.613281 C 246.875 464.1875 248.917969 448.597656 251.457031 438.949219 C 259.324219 410.242188 272.886719 397.6875 272.886719 397.6875 C 272.886719 397.6875 259.324219 355.992188 277.347656 307.242188 C 295.371094 306.6875 329.746094 316.953125 351.980469 339.71875 C 375.144531 332.914062 407.601562 330.503906 410.882812 327.222656 C 410.882812 327.222656 410.265625 324.378906 391.992188 326.421875 C 392.363281 321.347656 393.171875 308.230469 399.734375 285.898438 C 450.832031 305.078125 461.488281 341.453125 461.488281 341.453125 C 461.488281 341.453125 496.914062 348.132812 520.882812 393.355469 C 541.074219 431.339844 524.414062 464.003906 517.601562 475.136719 C 516.980469 473.34375 516.363281 471.550781 515.867188 469.941406 C 509.734375 452.558594 498.835938 452.308594 495.738281 459.609375 C 495.550781 458.992188 495.304688 458.433594 494.996094 457.941406 C 499.578125 419.089844 471.273438 411.234375 453.125 414.140625 C 440.488281 416.121094 428.101562 423.792969 415.40625 439.9375 C 415.40625 439.9375 382.269531 410.429688 352.351562 429.113281 C 341.328125 435.980469 335.628906 444.824219 334.207031 455.21875 C 332.90625 456.332031 331.914062 457.753906 331.292969 459.671875 C 328.199219 452.308594 317.296875 452.621094 311.164062 470.003906 C 305.09375 487.386719 297.476562 514.171875 302 541.332031 C 305.28125 541.332031 306.582031 541.332031 306.582031 541.332031 C 306.582031 541.332031 302.679688 517.574219 312.03125 482.3125 C 321.386719 447.050781 331.542969 464.867188 331.851562 467.035156 C 334.269531 455.03125 348.078125 453.796875 349.007812 465.734375 C 355.574219 457.257812 363.5625 459.734375 365.484375 484.726562 C 367.34375 509.71875 364.246094 541.269531 364.246094 541.269531 L 369.324219 541.269531 C 369.324219 541.269531 370.253906 534.464844 370.996094 524.628906 C 379.421875 531.554688 388.089844 537 396.082031 541.269531 L 408.160156 541.269531 C 398.3125 536.875 386.171875 530.257812 374.527344 520.730469 C 373.472656 519.863281 372.484375 519 371.429688 518.132812 C 372.113281 506.625 372.359375 492.582031 370.75 480.394531 C 367.402344 454.289062 356.132812 454.042969 350.621094 459.300781 C 349.378906 454.96875 345.476562 452.804688 341.453125 452.742188 C 343.558594 444.824219 348.636719 438.207031 357.433594 432.761719 C 383.136719 416.988281 416.582031 447.855469 416.582031 447.855469 C 429.960938 432.699219 439.933594 424.101562 451.144531 420.699219 C 470.40625 414.882812 489.792969 422.800781 488.988281 453.238281 C 484.03125 451.753906 478.023438 453.855469 476.476562 459.300781 C 471.023438 454.105469 459.691406 454.351562 456.347656 480.394531 C 454.613281 494.253906 455.105469 510.523438 455.972656 522.832031 C 449.347656 530.566406 442.90625 536.875 438.074219 541.332031 L 446.0625 541.332031 C 449.347656 538.113281 452.9375 534.402344 456.65625 530.257812 C 457.273438 537 457.894531 541.332031 457.894531 541.332031 L 462.972656 541.332031 C 462.972656 541.332031 459.875 509.78125 461.734375 484.789062 C 463.59375 459.796875 471.644531 457.320312 478.210938 465.796875 C 479.078125 453.855469 492.828125 455.03125 495.367188 467.09375 C 495.675781 464.867188 505.773438 447.113281 515.1875 482.375 C 524.601562 517.636719 520.574219 541.332031 520.574219 541.332031 C 520.574219 541.332031 521.875 541.332031 525.15625 541.332031 C 528.6875 520.175781 524.847656 499.203125 520.078125 482.808594 C 566.71875 409.871094 502.179688 348.382812 466.566406 337.246094 Z M 466.566406 337.246094 " fill-opacity="1" fill-rule="nonzero"/></g><path fill="rgb(93.728638%, 32.939148%, 32.939148%)" d="M 540.519531 342.441406 C 526.953125 355.0625 508.867188 353.949219 508.867188 353.949219 C 508.867188 353.949219 503.109375 346.773438 501.0625 335.636719 C 498.648438 321.902344 503.605469 306.5625 515.804688 306.6875 C 526.457031 306.746094 523.671875 325.988281 523.671875 325.988281 C 528.316406 322.707031 536.183594 317.324219 541.941406 319.984375 C 545.289062 321.59375 548.570312 333.597656 540.519531 342.441406 Z M 486.386719 314.417969 C 480.75 312.6875 474.371094 317.015625 470.097656 321.101562 C 470.097656 321.101562 470.777344 303.65625 460.558594 305.386719 C 448.789062 307.367188 444.824219 323.761719 447.859375 337.246094 C 450.335938 348.257812 456.285156 354.503906 456.285156 354.503906 C 456.285156 354.503906 473.75 352.527344 486.199219 337.371094 C 497.164062 324.007812 489.667969 315.46875 486.386719 314.417969 Z M 550.613281 376.777344 C 549.25 374.609375 545.90625 374.179688 543.367188 374.363281 C 543.367188 374.363281 548.570312 368.796875 544.730469 366.445312 C 540.269531 363.722656 534.261719 367.992188 531.476562 373.3125 C 529.183594 377.640625 529.308594 381.414062 529.308594 381.414062 C 529.308594 381.414062 535.625 385.746094 544.046875 384.324219 C 551.417969 383.023438 551.355469 378.074219 550.613281 376.777344 Z M 550.613281 376.777344 " fill-opacity="1" fill-rule="nonzero"/><path fill="rgb(16.859436%, 3.138733%, 2.349854%)" d="M 544.480469 318.191406 C 537.980469 315.160156 530.296875 318.75 525.097656 322.398438 C 525.097656 322.398438 526.953125 303.285156 514.9375 303.160156 C 501.125 303.035156 495.488281 320.355469 498.214844 335.886719 C 500.445312 348.503906 506.949219 356.546875 506.949219 356.546875 C 506.949219 356.546875 527.449219 357.785156 542.746094 343.492188 C 544.109375 342.257812 545.226562 341.082031 546.09375 339.84375 C 549.5625 334.832031 552.96875 322.214844 544.480469 318.191406 Z M 538.226562 341.761719 C 525.902344 353.269531 509.363281 352.277344 509.363281 352.277344 C 509.363281 352.277344 504.097656 345.78125 502.304688 335.574219 C 500.136719 323.078125 504.65625 309.097656 515.804688 309.160156 C 525.46875 309.222656 521.8125 327.84375 521.8125 327.84375 C 526.085938 324.875 534.324219 318.8125 539.527344 321.222656 C 542.5625 322.769531 549.128906 331.554688 538.226562 341.761719 Z M 508.683594 272.597656 C 505.773438 272.042969 502.921875 274.394531 501.0625 276.621094 C 501.0625 276.621094 500.074219 268.332031 495.117188 269.628906 C 489.421875 271.175781 488.738281 279.15625 491.214844 285.40625 C 493.261719 290.476562 496.667969 293.199219 496.667969 293.199219 C 496.667969 293.199219 505.152344 291.40625 510.167969 283.609375 C 514.753906 276.621094 510.355469 272.910156 508.683594 272.597656 Z M 546.464844 339.347656 C 549.375 335.390625 551.605469 328.027344 548.695312 322.335938 C 546.214844 326.171875 546.464844 339.347656 546.464844 339.347656 Z M 546.464844 339.347656 " fill-opacity="1" fill-rule="nonzero"/><g clip-path="url(#clip-5)"><path fill="rgb(8.239746%, 9.01947%, 16.859436%)" d="M 491.277344 457.878906 C 485.332031 452.1875 479.882812 455.03125 476.539062 459.300781 C 465.636719 454.96875 460.929688 466.105469 458.328125 480.148438 C 455.726562 494.253906 457.832031 524.320312 457.832031 524.320312 L 441.417969 541.332031 L 403.390625 541.332031 L 367.960938 519.925781 C 367.960938 519.925781 368.953125 495.921875 371.183594 483.613281 C 395.214844 505.820312 431.386719 488.316406 445.816406 459.175781 C 460.246094 430.039062 488.675781 444.824219 488.675781 444.824219 C 488.675781 444.824219 495.613281 449.898438 491.277344 457.878906 Z M 543.800781 334.339844 C 543.800781 334.339844 540.640625 325.429688 526.023438 332.605469 C 511.40625 339.71875 504.347656 335.945312 501.558594 326.109375 C 500.445312 337.800781 504.160156 348.382812 510.230469 354.011719 C 521.441406 354.011719 539.21875 350.359375 543.800781 334.339844 Z M 543.800781 334.339844 " fill-opacity="0.149" fill-rule="nonzero"/></g></svg>